<?xml version="1.0" encoding="UTF-8"?>
<svg version="1.1" xmlns="http://www.w3.org/2000/svg" width="512" height="512">
<path d="M0 0 C3.58892062 2.74446871 6.76557122 5.85104291 10 9 C11.7386236 10.62966916 13.48610373 12.2495269 15.23364258 13.86962891 C18.50014335 16.90127219 21.7489321 19.95182663 25 23 C25.65838867 23.61713867 26.31677734 24.23427734 26.99511719 24.87011719 C29.66979469 27.37738211 32.34425784 29.88487483 35.01806641 32.39306641 C39.50577079 36.60212604 44.00048512 40.80357046 48.5 45 C55.67308192 51.69041429 62.83002861 58.39792769 69.98388672 65.10888672 C71.99026804 66.99087143 73.99700951 68.87247119 76.00390625 70.75390625 C76.66406738 71.37281738 77.32422852 71.99172852 78.00439453 72.62939453 C79.32942708 73.87143018 80.65462109 75.11329359 81.97998047 76.35498047 C85.42979822 79.58754032 88.8758882 82.82394816 92.31640625 86.06640625 C93.02732422 86.73542969 93.73824219 87.40445313 94.47070312 88.09375 C95.8182429 89.36202272 97.16468404 90.63146426 98.50976562 91.90234375 C102.08066201 95.26055352 105.70732789 98.47616819 109.53491211 101.54077148 C111.25949075 103.25845296 112.15076098 104.7195853 113 107 C112.64615234 108.670625 112.64615234 108.670625 112.28515625 110.375 C111.59194786 114.14234125 111.59194786 114.14234125 114.24609375 117.0625 C115.2887682 118.06413478 116.35403426 119.04263684 117.4375 120 C117.99228027 120.51401367 118.54706055 121.02802734 119.11865234 121.55761719 C120.22842158 122.58137528 121.34583729 123.59691417 122.47119141 124.60351562 C123.77360972 125.79320466 125.01014172 127.05436859 126.23046875 128.328125 C129.72510452 131.94563668 129.72510452 131.94563668 134.4296875 133.171875 C136.09480903 133.06052949 137.75919328 132.93725675 139.42236328 132.79980469 C142.60026527 133.04662034 143.52776842 133.85955251 145.8125 136.03125 C146.50085938 136.67320312 147.18921875 137.31515625 147.8984375 137.9765625 C148.59195312 138.64429688 149.28546875 139.31203125 150 140 C151.31231524 141.21894894 152.62481375 142.43770061 153.9375 143.65625 C155.29301103 144.93607764 156.64713364 146.21737709 158 147.5 C159.48808935 148.90645306 160.97637559 150.31269784 162.46484375 151.71875 C163.21491699 152.42773438 163.96499023 153.13671875 164.73779297 153.8671875 C167.64836744 156.61128189 170.57211308 159.34107781 173.49707031 162.06982422 C176.11967169 164.52068551 178.73138996 166.98296925 181.34228516 169.44628906 C182.76170479 170.77665527 184.19761668 172.08938762 185.63671875 173.3984375 C192.03349173 179.38137119 195.13711722 185.08089205 195.5 193.9375 C195.14652498 202.36734371 192.9558554 208.54116763 186.8125 214.4375 C180.93758685 219.20484756 174.64729514 221.64391882 167.03125 221.28125 C156.25630683 219.78933479 149.36007588 213.58147141 142.0234375 206.02734375 C139.35657118 203.35532904 136.52995554 200.90016112 133.6640625 198.4453125 C132.39833536 197.34597202 131.1854566 196.1854566 130 195 C130 238.23 130 281.46 130 326 C151.285 311.645 151.285 311.645 173 297 C202.34969893 277.43353404 202.34969893 277.43353404 219 279 C227.57809587 281.01369094 234.00368366 285.67494256 238.8125 293 C243.96071776 301.43394036 244.47856765 311.38628723 242.34765625 320.91796875 C237.35511663 334.73851834 222.86607943 344.86874693 212.0546875 354.1953125 C209.33075297 356.58781774 206.66656731 359.04405942 204 361.5 C200.09023232 365.1001789 196.14133397 368.64417723 192.125 372.125 C189.38176582 374.54550075 186.69115432 377.02200642 184 379.5 C180.09018405 383.10012756 176.14133532 386.64417605 172.125 390.125 C169.38176582 392.54550075 166.69115432 395.02200642 164 397.5 C160.08329656 401.10646951 156.12994992 404.65930253 152.1015625 408.140625 C149.99355588 410.00570149 147.93762302 411.92091421 145.88330078 413.84472656 C126.14961783 432.23046289 107.59532667 441.68804604 80.58447266 445.45776367 C79.0977498 445.67264806 77.61115033 445.88838755 76.12466431 446.10490417 C72.13455773 446.6836471 68.14285165 447.25053647 64.15071535 447.81508422 C59.95212979 448.41091162 55.75513952 449.01777857 51.55795288 449.62336731 C43.62171655 450.76673736 35.68408956 451.90013372 27.74591386 453.02995139 C18.73279826 454.31331907 9.72142369 455.6087145 0.71012044 456.90473592 C-12.58501756 458.81637917 -25.880744 460.72396199 -39.17822647 462.61923409 C-40.61008694 462.82338142 -42.04191561 463.02775194 -43.47370911 463.23236847 C-63.92185366 466.15373952 -63.92185366 466.15373952 -70.8125 466.25 C-71.91207031 466.27578125 -73.01164063 466.3015625 -74.14453125 466.328125 C-85.25447634 465.38259776 -95.7264859 460.61947328 -106.0625 456.6875 C-107.76262406 456.04492479 -109.46290576 455.40276655 -111.16333008 454.76098633 C-115.99892289 452.93417395 -120.83184456 451.10037901 -125.66442871 449.265625 C-129.26167174 447.90071317 -132.85971145 446.53791296 -136.45800781 445.17578125 C-149.38412559 440.28252325 -162.30896331 435.38589513 -175.23046875 430.48046875 C-176.34648468 430.05713257 -177.46250061 429.63379639 -178.61233521 429.19763184 C-179.64542816 428.80523315 -180.67852112 428.41283447 -181.74291992 428.00854492 C-182.64153244 427.66740158 -183.54014496 427.32625824 -184.46598816 426.97477722 C-186.9865123 426.00518841 -189.49494923 425.00881864 -192 424 C-192.02578125 424.556875 -192.0515625 425.11375 -192.078125 425.6875 C-192.64504552 433.31515789 -194.58490839 439.1116655 -200.375 444.3125 C-207.12202147 449.62921071 -213.09239942 451.14877309 -221.51171875 451.23828125 C-222.23937943 451.246353 -222.9670401 451.25442474 -223.7167511 451.26274109 C-225.25572352 451.27654487 -226.79472609 451.28728353 -228.33374023 451.29516602 C-229.89405405 451.30665676 -231.45432946 451.3270626 -233.0144043 451.35668945 C-249.76005324 451.67431912 -249.76005324 451.67431912 -257 447 C-257.82113281 446.47019531 -258.64226562 445.94039063 -259.48828125 445.39453125 C-260.09027344 444.87246094 -260.69226563 444.35039062 -261.3125 443.8125 C-261.92738281 443.30332031 -262.54226563 442.79414063 -263.17578125 442.26953125 C-269.00908104 435.01225677 -269.60885673 427.67926834 -269.4375 418.625 C-269.44813477 417.00658203 -269.44813477 417.00658203 -269.45898438 415.35546875 C-269.39540654 407.5207231 -269.39540654 407.5207231 -267.66040039 405.23583984 C-266 404 -266 404 -263 403 C-262.67 393.1 -262.34 383.2 -262 373 C-263.32 372.67 -264.64 372.34 -266 372 C-268.28479868 370.35038334 -268.9179855 369.50004271 -269.37752342 366.69823837 C-269.3786545 365.7883025 -269.37978558 364.87836662 -269.38095093 363.94085693 C-269.3894104 362.8950798 -269.39786987 361.84930267 -269.40658569 360.77183533 C-269.400513 359.62477615 -269.39444031 358.47771698 -269.38818359 357.29589844 C-269.39344055 356.08750809 -269.39869751 354.87911774 -269.40411377 353.6341095 C-269.41506855 350.31761006 -269.41248077 347.00167086 -269.40297651 343.6852026 C-269.39538151 340.2117786 -269.40242572 336.73837856 -269.40713501 333.26495361 C-269.41259596 327.42740586 -269.40539518 321.58997188 -269.39111328 315.75244141 C-269.37481658 309.01379926 -269.38005203 302.27542985 -269.3965925 295.53679442 C-269.41023433 289.74641525 -269.41211297 283.95611792 -269.40427649 278.16572785 C-269.3996108 274.7097415 -269.39894391 271.253883 -269.40888596 267.79790497 C-269.41921065 263.93905669 -269.40487416 260.08051006 -269.38818359 256.22167969 C-269.39729263 254.51323631 -269.39729263 254.51323631 -269.40658569 252.77027893 C-269.33618685 243.97356571 -267.52144553 238.05518039 -262 231 C-255.5853626 225.33634454 -249.17894405 223.68997906 -240.671875 223.62890625 C-239.88282776 223.61987778 -239.09378052 223.6108493 -238.28082275 223.60154724 C-236.61677816 223.58709649 -234.95267742 223.57817093 -233.28857422 223.57446289 C-230.77081054 223.56259807 -228.25552647 223.5133932 -225.73828125 223.46289062 C-215.71560309 223.36094886 -207.5830475 223.79567126 -199.88012695 230.97607422 C-194.51107817 236.58526984 -191.83479871 241.89079173 -191.93359375 249.73046875 C-191.94318115 250.71813232 -191.95276855 251.7057959 -191.96264648 252.72338867 C-191.97497314 253.47467041 -191.9872998 254.22595215 -192 255 C-190.77482666 254.99214478 -190.77482666 254.99214478 -189.52490234 254.98413086 C-185.80827612 254.96328651 -182.09166222 254.95031608 -178.375 254.9375 C-177.08980469 254.92912109 -175.80460937 254.92074219 -174.48046875 254.91210938 C-173.23652344 254.90888672 -171.99257812 254.90566406 -170.7109375 254.90234375 C-169.56931152 254.89710693 -168.42768555 254.89187012 -167.25146484 254.88647461 C-164 255 -164 255 -158 256 C-158.33 235.87 -158.66 215.74 -159 195 C-162.3 198.3 -165.6 201.6 -169 205 C-173.1875 208.75 -173.1875 208.75 -175.1328125 210.40625 C-176.3760399 211.46741481 -177.60043707 212.55105047 -178.8046875 213.65625 C-185.99818657 220.17835582 -191.78616905 221.64729608 -201.48828125 221.41015625 C-208.42580031 220.59987872 -213.71492854 217.74015686 -218.4375 212.625 C-224.33981946 204.78310814 -225.06940758 197.72287909 -224 188 C-221.09612993 175.90054137 -207.96049462 166.34395813 -198.85546875 158.63671875 C-195.82900443 155.96705865 -193.04790057 153.05539322 -190.21484375 150.18359375 C-188.22340539 148.22025329 -186.18697422 146.37920331 -184.0625 144.5625 C-179.97640511 141.06129345 -176.24064323 137.25591269 -172.4609375 133.4296875 C-169.67335608 130.67750394 -166.77743169 128.10088896 -163.7890625 125.5703125 C-163.19867188 125.05210937 -162.60828125 124.53390625 -162 124 C-161.31337784 123.45511932 -160.62675568 122.91023865 -159.91932678 122.34884644 C-157.27523339 119.11304032 -157.50117371 116.99595637 -157.50170898 112.84814453 C-157.49619019 112.13543396 -157.49067139 111.42272339 -157.48498535 110.68841553 C-157.47567567 109.14429603 -157.47555174 107.60009975 -157.48357964 106.05597305 C-157.49621747 103.6088561 -157.48491316 101.16286591 -157.46754456 98.71578979 C-157.44083466 94.40095385 -157.43524897 90.08639405 -157.43664551 85.77148438 C-157.43887304 78.87249011 -157.4246782 71.97383858 -157.38105965 65.07497787 C-157.37124421 62.66968427 -157.37992764 60.2649319 -157.38975525 57.85964966 C-157.38360809 56.37664439 -157.37669537 54.89364203 -157.36889648 53.41064453 C-157.36985825 52.12143097 -157.37082001 50.83221741 -157.37181091 49.50393677 C-156.87323183 44.80533988 -155.49388624 41.38960611 -152.01342773 38.15209961 C-147.32689646 36.36033577 -142.76106946 36.5524819 -137.78515625 36.56640625 C-136.15241005 36.55854347 -136.15241005 36.55854347 -134.48667908 36.55052185 C-132.18782401 36.54410682 -129.8889361 36.54543189 -127.59008789 36.55395508 C-124.07834235 36.56246162 -120.56822542 36.53369988 -117.05664062 36.50195312 C-114.82031299 36.50034088 -112.58398247 36.50091909 -110.34765625 36.50390625 C-108.77710228 36.48705528 -108.77710228 36.48705528 -107.17481995 36.46986389 C-101.16577735 36.52712507 -97.50171291 36.86497538 -93 41 C-90.8247714 44.0783937 -90.64008139 47.03886056 -90.375 50.75 C-90.26285156 52.22726563 -90.26285156 52.22726563 -90.1484375 53.734375 C-90.09945312 54.48203125 -90.05046875 55.2296875 -90 56 C-89.57404541 55.59910156 -89.14809082 55.19820312 -88.70922852 54.78515625 C-82.03401693 48.50260417 -75.35880534 42.22005208 -68.68359375 35.9375 C-67.99128662 35.28587891 -67.29897949 34.63425781 -66.58569336 33.96289062 C-65.18952448 32.64892623 -63.7932016 31.33512545 -62.39672852 30.02148438 C-58.75043634 26.59106616 -55.10719764 23.15748867 -51.46875 19.71875 C-47.91455063 16.35992947 -44.34837621 13.014214 -40.77685547 9.67382812 C-39.26570967 8.25030304 -37.77334679 6.8068812 -36.28515625 5.359375 C-25.77988288 -4.61048022 -12.90011929 -7.45565949 0 0 Z " fill="#020101" transform="translate(269,25)"/>
<path d="M0 0 C29 0 29 0 37 2 C38.80936202 2.27178178 40.62192724 2.52339062 42.4375 2.75 C57.91364482 5.28069035 72.10923472 12.45371762 85.66796875 20.04296875 C112.65442001 35.078122 141.650851 38.78060652 171.8961792 41.87695312 C178.29458557 42.53378011 184.69088756 43.21038883 191.08662987 43.89260483 C193.27744035 44.1237555 195.46895195 44.34678436 197.66072083 44.56863403 C204.8972213 45.31794942 212.07204646 46.26070275 219.24291992 47.49560547 C219.94976834 47.61515657 220.65661676 47.73470768 221.38488483 47.85788155 C229.40357862 49.29796288 236.53976112 52.4093589 241.56640625 59.078125 C246.26807071 65.92102942 248.2812521 70.70306315 248 79 C238.65382263 79.14491785 229.49988358 78.7646132 220.19921875 77.86328125 C218.21770186 77.6796377 216.2361848 77.49599606 214.25466061 77.31243134 C212.16487975 77.1176279 210.07541646 76.91970725 207.98602295 76.72079468 C203.62879145 76.30605369 199.27079931 75.89976564 194.91259766 75.49536133 C194.17812283 75.42719176 193.44364799 75.3590222 192.68691635 75.28878689 C191.19396942 75.15022915 189.70102025 75.01169564 188.20806885 74.87318611 C185.95009728 74.66341833 183.69220491 74.45281468 181.43432617 74.24205017 C171.37944072 73.30474378 161.32208101 72.39995453 151.26171875 71.5234375 C149.29307106 71.35188393 149.29307106 71.35188393 147.28465271 71.17686462 C142.25585751 70.73969899 137.22692678 70.3041315 132.19784546 69.87026978 C128.77502513 69.57482264 125.35235289 69.27770439 121.9296875 68.98046875 C120.43564644 68.85271561 120.43564644 68.85271561 118.91142273 68.72238159 C113.58824319 68.25944128 108.29898629 67.68533458 103 67 C95.83486211 66.29535504 95.83486211 66.29535504 89.3125 68.6875 C87.76058878 71.42181977 87.6027757 72.90165047 88 76 C88.33 76.99 88.66 77.98 89 79 C97.77105553 80.621926 106.49502039 81.59036891 115.3828125 82.296875 C116.77704445 82.41164728 118.17123387 82.52693725 119.56538391 82.6427002 C122.53669723 82.88865567 125.50821831 83.13183252 128.47994995 83.37268066 C136.43941454 84.01808917 144.39742887 84.68104485 152.35546875 85.34375 C153.16957026 85.41138802 153.98367176 85.47902603 154.82244301 85.54871368 C166.63282067 86.53106993 178.43732013 87.56669653 190.23828125 88.65625 C190.96949944 88.72362617 191.70071762 88.79100235 192.45409393 88.86042023 C198.77961441 89.44355185 205.10496111 90.02847884 211.42901611 90.62731934 C227.34026908 92.13178671 243.24038647 93.41297927 259.19456482 94.34112549 C260.44439651 94.41385681 261.69422821 94.48658813 262.98193359 94.56152344 C264.17840515 94.630448 265.37487671 94.69937256 266.60760498 94.77038574 C269.71904233 94.98098338 272.80456178 95.28508716 275.90478516 95.61816406 C286.31313927 96.51550801 292.33993135 94.92717794 300.84765625 88.79296875 C301.75404846 88.16408249 302.66044067 87.53519623 303.59429932 86.88725281 C305.48056732 85.57838816 307.36177332 84.26219946 309.23794556 82.93890381 C313.45628508 79.97771867 317.73765192 77.11226983 322.015625 74.23828125 C323.69714582 73.10125094 325.37821147 71.96354721 327.05883789 70.82519531 C343.99271124 59.36395122 360.98277123 47.99286645 378.0625 36.75 C378.96029175 36.15861237 379.8580835 35.56722473 380.78308105 34.95791626 C383.30355617 33.29846489 385.82526444 31.64091116 388.34765625 29.984375 C389.09763382 29.49102158 389.84761139 28.99766815 390.62031555 28.48936462 C397.1604842 24.2030144 401.16274547 23.20186375 409 24 C414.00230198 26.45567552 417.49851535 29.9970307 420 35 C420.77238404 41.55423025 420.53288056 46.75758809 416.59765625 52.18359375 C414.37306029 54.71277987 411.96607169 56.87585382 409.37109375 59.01953125 C406.49490942 61.42187961 403.74925901 63.95518518 401 66.5 C397.09123149 70.10124886 393.14130736 73.64420029 389.125 77.125 C386.38176582 79.54550075 383.69115432 82.02200642 381 84.5 C377.09018405 88.10012756 373.14133532 91.64417605 369.125 95.125 C366.38176582 97.54550075 363.69115432 100.02200642 361 102.5 C357.09018405 106.10012756 353.14133532 109.64417605 349.125 113.125 C346.38176582 115.54550075 343.69115432 118.02200642 341 120.5 C337.08796891 124.10216724 333.14274108 127.65449215 329.11328125 131.125 C326.9397752 133.05343421 324.83754238 135.04922799 322.72949219 137.04858398 C316.91247285 142.5239133 310.97450576 147.03324985 304 151 C303.360625 151.38671875 302.72125 151.7734375 302.0625 152.171875 C289.89580226 158.98942115 274.67740599 160.13045264 261.1015625 161.91015625 C259.21303817 162.16535644 257.32464318 162.42151542 255.43637085 162.67857361 C250.50234301 163.34814402 245.56693366 164.00686073 240.63104248 164.66253662 C232.74208599 165.71218702 224.85529495 166.77793665 216.96866989 167.84493828 C214.24819282 168.21132578 211.52708162 168.57263837 208.80581665 168.93312073 C200.1035038 170.09576315 191.45149346 171.39224809 182.81275082 172.9610815 C177.17654856 173.98339634 171.53447494 174.82847513 165.85546875 175.5703125 C164.91238358 175.69687225 163.9692984 175.82343201 162.99763489 175.9538269 C160.06135583 176.34754778 157.124501 176.73670451 154.1875 177.125 C151.204151 177.52091522 148.22095767 177.91789558 145.2381134 178.31759644 C143.40092734 178.56365994 141.56344506 178.80752488 139.72563171 179.04885864 C138.89989151 179.15922455 138.07415131 179.26959045 137.22338867 179.38330078 C136.14114265 179.52628098 136.14114265 179.52628098 135.03703308 179.67214966 C132.97789468 179.97318925 132.97789468 179.97318925 130.90473938 180.52804565 C128.34796125 181.16156148 125.94435848 181.17029831 123.3125 181.1875 C122.33925781 181.20167969 121.36601562 181.21585938 120.36328125 181.23046875 C111.73814833 180.63943177 104.10431892 177.68689238 96.10321045 174.54983521 C92.42172164 173.10691401 88.73143522 171.6866852 85.04296875 170.26171875 C84.21287292 169.94029404 83.3827771 169.61886932 82.52752686 169.28770447 C70.9593954 164.81326232 59.35688888 160.42869253 47.75827026 156.03405762 C44.56392837 154.82371982 41.36994105 153.61245 38.17610836 152.40076923 C35.13574863 151.24734792 32.09521146 150.09439455 29.0546875 148.94140625 C27.97637161 148.5323555 26.89805573 148.12330475 25.7870636 147.70185852 C17.19901546 144.447032 8.59955105 141.22483164 0 138 C0 92.46 0 46.92 0 0 Z " fill="#FDD8A7" transform="translate(77,295)"/>
<path d="M0 0 C3.48654476 1.4841373 5.64191072 3.46214052 8.25 6.1875 C11.09914013 9.10658629 13.96370846 11.90988554 17.0625 14.5625 C20.5551343 17.55717456 23.77353883 20.75437537 27 24.03125 C28.93891002 25.93986455 30.93699551 27.72710552 33 29.5 C36.51001511 32.51641923 39.75051276 35.73095132 42.99609375 39.02734375 C45.58246151 41.57337829 48.3153528 43.92021557 51.06640625 46.28515625 C53.56569138 48.50169397 55.88281884 50.87162281 58.22265625 53.25390625 C60.06593574 55.06477643 61.97822799 56.75321354 63.9375 58.4375 C66.74576347 60.85617779 69.39970593 63.35899683 72 66 C74.58009215 68.62040609 77.21103607 71.10323412 80 73.5 C83.51141648 76.51762353 86.75307402 79.73359081 90 83.03125 C91.93891002 84.93986455 93.93699551 86.72710552 96 88.5 C99.51141648 91.51762353 102.75307402 94.73359081 106 98.03125 C108.56046264 100.55170541 111.26765543 102.87104525 113.9921875 105.2109375 C116.77122115 107.68719705 119.35891612 110.33261282 121.9453125 113.0078125 C124.00057143 115.17787175 124.00057143 115.17787175 127.07493591 116.67900085 C129.48219098 118.70617762 129.9711035 119.85037847 130.57682991 122.98673439 C130.82095648 127.04393697 130.86930644 131.06534153 130.85571289 135.12817383 C130.87203499 136.69229284 130.89083048 138.25638771 130.91191101 139.82044983 C130.96060878 144.06452459 130.97059052 148.30784803 130.97061086 152.55217195 C130.97334292 156.09830628 130.99294868 159.64427412 131.01190466 163.19035262 C131.05555952 171.5593743 131.06577703 179.92800261 131.05688477 188.29711914 C131.0484451 196.92238255 131.10293576 205.54567275 131.18742949 214.17048246 C131.25742303 221.58221617 131.28480266 228.99331063 131.27899545 236.40537089 C131.2761662 240.82945096 131.29009169 245.25188137 131.3464222 249.6756382 C131.39785686 253.83896458 131.39601981 257.99897586 131.35394478 262.1623745 C131.34741278 263.68614901 131.35949821 265.21013991 131.39200974 266.73358154 C131.62074162 278.22128289 131.62074162 278.22128289 127.62170219 282.61011314 C124.83291651 284.6544356 122.02473457 286.33230449 119 288 C117.46311492 289.14543852 115.93895244 290.30849436 114.4375 291.5 C109.56164319 294.68440914 105.65512184 294.56551218 100 294 C98.83726562 293.91878906 97.67453125 293.83757812 96.4765625 293.75390625 C93.31454378 293.53098736 90.15765148 293.27716063 87 293 C86.9484375 292.175 86.896875 291.35 86.84375 290.5 C85.62469473 278.08780091 80.93926733 265.20631858 71.40625 256.67578125 C64.54327545 251.89620969 56.92376059 248.58392543 49 246 C48.99453156 244.13744316 48.99453156 244.13744316 48.98895264 242.23725891 C48.95202257 230.53932379 48.89427147 218.84165239 48.81609726 207.14391804 C48.77657648 201.12986975 48.74441045 195.11596889 48.72900391 189.10180664 C48.71386783 183.29853826 48.67947604 177.49567509 48.63169098 171.6925869 C48.61684578 169.47784127 48.60895719 167.26303779 48.60811615 165.04824257 C48.60575425 161.94749294 48.57873623 158.84787021 48.54589844 155.74731445 C48.5509288 154.83021698 48.55595917 153.91311951 48.56114197 152.9682312 C48.4942473 148.88954511 48.3447234 146.57660181 46.21588135 143.01579285 C41.79718315 138.99609196 38.32008156 138.70482868 32.46508789 138.7253418 C31.71175674 138.72023087 30.9584256 138.71511993 30.18226624 138.70985413 C27.69564843 138.69597071 25.20930817 138.69691391 22.72265625 138.69921875 C20.99157102 138.69533116 19.26048673 138.69099636 17.52940369 138.68623352 C13.90213935 138.67877403 10.27497236 138.67906064 6.64770508 138.68432617 C2.00272171 138.69012084 -2.64186291 138.67318869 -7.28678036 138.6499815 C-10.86160099 138.63523961 -14.43632569 138.63437307 -18.01117134 138.63749123 C-19.72356519 138.63697826 -21.43596444 138.63174503 -23.14832878 138.62167931 C-25.54437951 138.60932304 -27.93965476 138.61610122 -30.33569336 138.62768555 C-31.04079041 138.62004181 -31.74588745 138.61239807 -32.47235107 138.60452271 C-36.82476814 138.65096227 -39.63758665 139.18073947 -43 142 C-46.14134404 146.67514293 -46.44254171 151.00490278 -46.43237305 156.48388672 C-46.4425647 157.31381638 -46.45275635 158.14374603 -46.46325684 158.99882507 C-46.49330829 161.72584859 -46.5026407 164.45252038 -46.51171875 167.1796875 C-46.52857126 169.07684489 -46.54672228 170.97399116 -46.56611633 172.87112427 C-46.61356025 177.85230024 -46.64340592 182.83343109 -46.66955566 187.8147583 C-46.69938946 192.90263783 -46.74591013 197.99036199 -46.79101562 203.078125 C-46.87698495 213.05200196 -46.94435861 223.02591096 -47 233 C-48.43034053 232.85491863 -49.86027916 232.7058717 -51.29003906 232.55517578 C-52.08637756 232.47260529 -52.88271606 232.39003479 -53.70318604 232.30496216 C-66.0320118 230.66798791 -77.58347333 223.20549218 -88.4211731 217.48614502 C-99.43727498 211.6807158 -110.26483905 207.01158073 -122.21606445 203.43261719 C-123.11299515 203.16390808 -124.00992584 202.89519897 -124.93403625 202.61834717 C-125.61580429 202.4142926 -126.29757233 202.21023804 -127 202 C-127.34935684 191.55140514 -127.61495553 181.10422371 -127.77718258 170.65095329 C-127.85509717 165.79529792 -127.96051875 160.94366927 -128.1315918 156.09033203 C-128.29601739 151.39556316 -128.3845417 146.70463399 -128.42315865 142.00720596 C-128.45062854 140.22628451 -128.50427979 138.44554633 -128.58595085 136.66628647 C-128.92822859 128.89187373 -129.20540112 122.0275297 -123.80691528 115.93511963 C-120.71663588 112.88613846 -117.4007231 110.20171962 -113.95201302 107.57165909 C-111.25605652 105.40101551 -108.86966509 102.97939264 -106.46217251 100.4975872 C-104.76861564 98.76301138 -102.98069226 97.1837815 -101.125 95.625 C-98.1153247 93.03365795 -95.28911384 90.32745217 -92.5 87.5 C-89.13885518 84.0928121 -85.66298797 80.92541826 -82.03125 77.8125 C-79.76361428 75.7890712 -77.6342305 73.66346653 -75.5 71.5 C-72.13885518 68.0928121 -68.66298797 64.92541826 -65.03125 61.8125 C-62.76361428 59.7890712 -60.6342305 57.66346653 -58.5 55.5 C-55.77170593 52.73439592 -53.01483166 50.08712969 -50.0625 47.5625 C-46.8896408 44.84380752 -43.93661618 41.97248325 -41 39 C-37.45767801 35.41441301 -33.82444339 32.05108338 -29.99609375 28.77734375 C-26.93333273 26.05022777 -24.09776507 23.10595363 -21.21875 20.1875 C-18.6005296 17.60615594 -15.85007681 15.22546715 -13.0546875 12.83984375 C-9.83765901 9.95919656 -6.86943962 6.83936295 -3.8828125 3.72265625 C-2 2 -2 2 0 2 C0 1.34 0 0.68 0 0 Z " fill="#E0EEFA" transform="translate(253,83)"/>
<path d="M0 0 C2.5354674 2.5354674 2.35408781 3.60206149 2.4375 7.125 C2.28659897 13.92442271 0.10981152 17.94764458 -4.69140625 22.66015625 C-5.98461335 23.80217421 -7.29878168 24.9207327 -8.62890625 26.01953125 C-11.50509058 28.42187961 -14.25074099 30.95518518 -17 33.5 C-20.90876851 37.10124886 -24.85869264 40.64420029 -28.875 44.125 C-31.61823418 46.54550075 -34.30884568 49.02200642 -37 51.5 C-40.90981595 55.10012756 -44.85866468 58.64417605 -48.875 62.125 C-51.61823418 64.54550075 -54.30884568 67.02200642 -57 69.5 C-60.90981595 73.10012756 -64.85866468 76.64417605 -68.875 80.125 C-71.61823418 82.54550075 -74.30884568 85.02200642 -77 87.5 C-80.91203109 91.10216724 -84.85725892 94.65449215 -88.88671875 98.125 C-91.0602248 100.05343421 -93.16245762 102.04922799 -95.27050781 104.04858398 C-101.08752715 109.5239133 -107.02549424 114.03324985 -114 118 C-114.639375 118.38671875 -115.27875 118.7734375 -115.9375 119.171875 C-128.10419774 125.98942115 -143.32259401 127.13045264 -156.8984375 128.91015625 C-158.78696183 129.16535644 -160.67535682 129.42151542 -162.56362915 129.67857361 C-167.49765699 130.34814402 -172.43306634 131.00686073 -177.36895752 131.66253662 C-185.25791401 132.71218702 -193.14470505 133.77793665 -201.03133011 134.84493828 C-203.75180718 135.21132578 -206.47291838 135.57263837 -209.19418335 135.93312073 C-217.8964962 137.09576315 -226.54850654 138.39224809 -235.18724918 139.9610815 C-240.82345144 140.98339634 -246.46552506 141.82847513 -252.14453125 142.5703125 C-253.08761642 142.69687225 -254.0307016 142.82343201 -255.00236511 142.9538269 C-257.93864417 143.34754778 -260.875499 143.73670451 -263.8125 144.125 C-266.795849 144.52091522 -269.77904233 144.91789558 -272.7618866 145.31759644 C-274.59907266 145.56365994 -276.43655494 145.80752488 -278.27436829 146.04885864 C-279.10010849 146.15922455 -279.92584869 146.26959045 -280.77661133 146.38330078 C-281.85885735 146.52628098 -281.85885735 146.52628098 -282.96296692 146.67214966 C-285.02210532 146.97318925 -285.02210532 146.97318925 -287.09526062 147.52804565 C-289.65203875 148.16156148 -292.05564152 148.17029831 -294.6875 148.1875 C-295.66074219 148.20167969 -296.63398438 148.21585938 -297.63671875 148.23046875 C-306.26185167 147.63943177 -313.89568108 144.68689238 -321.89678955 141.54983521 C-325.57827836 140.10691401 -329.26856478 138.6866852 -332.95703125 137.26171875 C-333.78712708 136.94029404 -334.6172229 136.61886932 -335.47247314 136.28770447 C-347.0406046 131.81326232 -358.64311112 127.42869253 -370.24172974 123.03405762 C-373.43607163 121.82371982 -376.63005895 120.61245 -379.82389164 119.40076923 C-382.86425137 118.24734792 -385.90478854 117.09439455 -388.9453125 115.94140625 C-390.02362839 115.5323555 -391.10194427 115.12330475 -392.2129364 114.70185852 C-400.80098454 111.447032 -409.40044895 108.22483164 -418 105 C-418 91.8 -418 78.6 -418 65 C-406.73922713 68.37823186 -406.73922713 68.37823186 -402.59375 69.91796875 C-401.62453613 70.27689209 -400.65532227 70.63581543 -399.65673828 71.00561523 C-398.61501465 71.39563721 -397.57329102 71.78565918 -396.5 72.1875 C-395.3641748 72.61039307 -394.22834961 73.03328613 -393.05810547 73.46899414 C-373.44652735 80.79471481 -353.90412867 88.3061438 -334.34765625 95.77734375 C-330.8983665 97.09487309 -327.44825726 98.41023316 -323.99749756 99.72390747 C-322.17362497 100.41896945 -320.35071468 101.1165549 -318.52783203 101.81420898 C-316.90917236 102.43017944 -316.90917236 102.43017944 -315.2578125 103.05859375 C-314.3311377 103.41236084 -313.40446289 103.76612793 -312.44970703 104.13061523 C-293.46875243 110.86683004 -268.36933317 105.52276384 -248.48626423 104.04657221 C-244.68220918 103.76604445 -240.87740119 103.49607488 -237.07269287 103.22457886 C-230.70552697 102.76872639 -224.33892665 102.30558685 -217.97265625 101.83740234 C-210.65724075 101.29946852 -203.34115622 100.77156149 -196.02460694 100.24928963 C-188.14881092 99.68700793 -180.27353578 99.11767807 -172.39840221 98.54620123 C-170.16170707 98.38433815 -167.92492459 98.22373404 -165.68811798 98.06341934 C-162.15804948 97.81004545 -158.62836129 97.55186818 -155.09889603 97.2902298 C-153.21646548 97.15167967 -151.3337179 97.01745711 -149.45095825 96.88345337 C-118.1326543 94.53668173 -97.87291591 84.52615452 -74.55859375 64.09375 C-70.7181491 60.73629666 -66.77261023 57.51868139 -62.80859375 54.30859375 C-59.4970152 51.58655909 -56.24686941 48.79860269 -53 46 C-48.01063907 41.70022006 -42.95778656 37.49514438 -37.84375 33.34375 C-33.91365001 30.1046566 -30.06199568 26.77739878 -26.20458984 23.45239258 C-21.69256816 19.57155742 -17.10647309 15.79141027 -12.48046875 12.046875 C-9.42413623 9.52479903 -6.47904973 6.89243437 -3.55859375 4.21484375 C-2 3 -2 3 0 3 C0 2.01 0 1.02 0 0 Z " fill="#F2C691" transform="translate(495,328)"/>
<path d="M0 0 C2.33178245 1.55649438 4.20703505 3.00540948 6.25 4.875 C7.09534302 5.6189502 7.09534302 5.6189502 7.95776367 6.37792969 C12.38796911 10.32118228 16.58769899 14.48340252 20.73046875 18.7265625 C23.3953677 21.39604819 26.20574824 23.83865211 29.0703125 26.2890625 C31.84107582 28.74573119 34.402929 31.39359977 37 34.03125 C38.93891002 35.93986455 40.93699551 37.72710552 43 39.5 C46.51001511 42.51641923 49.75051276 45.73095132 52.99609375 49.02734375 C55.58246151 51.57337829 58.3153528 53.92021557 61.06640625 56.28515625 C63.56569138 58.50169397 65.88281884 60.87162281 68.22265625 63.25390625 C70.06593574 65.06477643 71.97822799 66.75321354 73.9375 68.4375 C76.74576347 70.85617779 79.39970593 73.35899683 82 76 C84.58009215 78.62040609 87.21103607 81.10323412 90 83.5 C92.78896393 85.89676588 95.41990785 88.37959391 98 91 C105.83967568 99.74245298 105.83967568 99.74245298 115.9375 104.1875 C118.87301049 104.19576683 118.87301049 104.19576683 120.83203125 103.14453125 C123 103 123 103 125.734375 105.28125 C126.75184342 106.34254731 127.75643952 107.41628807 128.75 108.5 C129.81156332 109.61671581 130.87536781 110.73130543 131.94140625 111.84375 C132.71895264 112.65972656 132.71895264 112.65972656 133.51220703 113.4921875 C136.02450689 116.03829251 138.77750023 118.27652192 141.57421875 120.5 C143.29369404 122.30898222 143.68666859 123.54230675 144 126 C143.6596875 127.175625 143.6596875 127.175625 143.3125 128.375 C142.84588033 132.2946052 144.68138406 133.89305463 147 137 C148.67383085 138.68194312 150.40872426 140.30445894 152.1875 141.875 C153.25640372 142.83069595 154.32403526 143.78781601 155.390625 144.74609375 C155.96748047 145.26284668 156.54433594 145.77959961 157.13867188 146.31201172 C161.36004809 150.14026396 165.47653867 154.08245343 169.61621094 157.99853516 C173.01996518 161.21268017 176.43449913 164.41005366 179.90625 167.55078125 C180.5051001 168.09420166 181.1039502 168.63762207 181.72094727 169.19750977 C182.83139882 170.20182799 183.94620544 171.20136074 185.06616211 172.19506836 C189.03755522 175.79225528 190.82642026 178.09062289 191.3125 183.4375 C190.97901109 187.23927362 190.30848661 189.00751736 188 192 C184.33315075 194.44456617 182.14446339 194.72801576 177.8046875 194.62109375 C168.64031396 192.59165727 161.21514433 182.34734087 154.7890625 175.79296875 C151.9005246 172.90038528 148.90278263 170.22236954 145.79296875 167.57421875 C143.33279825 165.41419977 141.07035076 163.08069726 138.77734375 160.74609375 C136.93406426 158.93522357 135.02177201 157.24678646 133.0625 155.5625 C130.25423653 153.14382221 127.60029407 150.64100317 125 148 C122.41990785 145.37959391 119.78896393 142.89676588 117 140.5 C113.48858352 137.48237647 110.24692598 134.26640919 107 130.96875 C105.06108998 129.06013545 103.06300449 127.27289448 101 125.5 C97.48858352 122.48237647 94.24692598 119.26640919 91 115.96875 C89.06108998 114.06013545 87.06300449 112.27289448 85 110.5 C81.48858352 107.48237647 78.24692598 104.26640919 75 100.96875 C73.06108998 99.06013545 71.06300449 97.27289448 69 95.5 C65.48998489 92.48358077 62.24948724 89.26904868 59.00390625 85.97265625 C56.41753849 83.42662171 53.6846472 81.07978443 50.93359375 78.71484375 C48.43430862 76.49830603 46.11718116 74.12837719 43.77734375 71.74609375 C41.93406426 69.93522357 40.02177201 68.24678646 38.0625 66.5625 C35.25423653 64.14382221 32.60029407 61.64100317 30 59 C27.41990785 56.37959391 24.78896393 53.89676588 22 51.5 C19.21103607 49.10323412 16.58009215 46.62040609 14 44 C6.20950023 35.49630948 6.20950023 35.49630948 -3.6875 30.4375 C-7.30280423 31.05141959 -8.08658216 31.67997611 -10.7109375 34.0703125 C-11.41468506 34.70735107 -12.11843262 35.34438965 -12.84350586 36.00073242 C-13.91097046 36.99036987 -13.91097046 36.99036987 -15 38 C-15.64912354 38.59981689 -16.29824707 39.19963379 -16.96704102 39.81762695 C-18.96670537 41.68107095 -20.95358282 43.55730473 -22.9375 45.4375 C-24.43616181 46.85290282 -25.93486077 48.26826629 -27.43359375 49.68359375 C-28.57030518 50.75843018 -28.57030518 50.75843018 -29.72998047 51.85498047 C-33.31468464 55.24229074 -36.90766134 58.62079092 -40.5 62 C-41.90365482 63.32160504 -43.30730061 64.64321966 -44.7109375 65.96484375 C-47.67167341 68.7516995 -50.63567863 71.53503013 -53.6015625 74.31640625 C-54.35888672 75.02732422 -55.11621094 75.73824219 -55.89648438 76.47070312 C-57.3318176 77.81797909 -58.76795331 79.16440089 -60.20507812 80.50976562 C-63.43655919 83.54463057 -66.62634961 86.60787896 -69.75 89.75390625 C-72.04781309 92.06763577 -74.37640788 94.27618262 -76.875 96.375 C-79.8846753 98.96634205 -82.71088616 101.67254783 -85.5 104.5 C-88.86114482 107.9071879 -92.33701203 111.07458174 -95.96875 114.1875 C-98.23638572 116.2109288 -100.3657695 118.33653347 -102.5 120.5 C-105.22829407 123.26560408 -107.98516834 125.91287031 -110.9375 128.4375 C-114.1103592 131.15619248 -117.06338382 134.02751675 -120 137 C-123.54232199 140.58558699 -127.17555661 143.94891662 -131.00390625 147.22265625 C-134.06666727 149.94977223 -136.90223493 152.89404637 -139.78125 155.8125 C-142.40771122 158.40196881 -145.16976458 160.78836964 -147.96875 163.1875 C-150.23638572 165.2109288 -152.3657695 167.33653347 -154.5 169.5 C-157.85935939 172.90537801 -161.33084183 176.07308546 -164.96484375 179.1796875 C-167.26603192 181.23794794 -169.40709206 183.41488627 -171.5625 185.625 C-180.57164884 194.66505501 -180.57164884 194.66505501 -186.625 195.5 C-191.09867944 194.83723267 -193.49457638 193.34969014 -196.8125 190.375 C-198.69312646 186.61374707 -198.74732245 183.11027348 -198 179 C-195.11306281 174.48916065 -191.22958429 171.37312346 -187.171875 167.91796875 C-184.84749602 165.86532473 -182.67559406 163.70935328 -180.5 161.5 C-177.13885518 158.0928121 -173.66298797 154.92541826 -170.03125 151.8125 C-167.76361428 149.7890712 -165.6342305 147.66346653 -163.5 145.5 C-160.77170593 142.73439592 -158.01483166 140.08712969 -155.0625 137.5625 C-151.8896408 134.84380752 -148.93661618 131.97248325 -146 129 C-142.45767801 125.41441301 -138.82444339 122.05108338 -134.99609375 118.77734375 C-131.93333273 116.05022777 -129.09776507 113.10595363 -126.21875 110.1875 C-123.59228878 107.59803119 -120.83023542 105.21163036 -118.03125 102.8125 C-115.76361428 100.7890712 -113.6342305 98.66346653 -111.5 96.5 C-108.13885518 93.0928121 -104.66298797 89.92541826 -101.03125 86.8125 C-98.76361428 84.7890712 -96.6342305 82.66346653 -94.5 80.5 C-91.77170593 77.73439592 -89.01483166 75.08712969 -86.0625 72.5625 C-82.8896408 69.84380752 -79.93661618 66.97248325 -77 64 C-73.45767801 60.41441301 -69.82444339 57.05108338 -65.99609375 53.77734375 C-62.93333273 51.05022777 -60.09776507 48.10595363 -57.21875 45.1875 C-54.59228878 42.59803119 -51.83023542 40.21163036 -49.03125 37.8125 C-46.76361428 35.7890712 -44.6342305 33.66346653 -42.5 31.5 C-39.13885518 28.0928121 -35.66298797 24.92541826 -32.03125 21.8125 C-29.76361428 19.7890712 -27.6342305 17.66346653 -25.5 15.5 C-9.14890475 -1.04877689 -9.14890475 -1.04877689 0 0 Z " fill="#FC4B4B" transform="translate(258,36)"/>
<path d="M0 0 C3.48654476 1.4841373 5.64191072 3.46214052 8.25 6.1875 C11.09914013 9.10658629 13.96370846 11.90988554 17.0625 14.5625 C20.5551343 17.55717456 23.77353883 20.75437537 27 24.03125 C28.93891002 25.93986455 30.93699551 27.72710552 33 29.5 C36.51001511 32.51641923 39.75051276 35.73095132 42.99609375 39.02734375 C45.58246151 41.57337829 48.3153528 43.92021557 51.06640625 46.28515625 C53.56569138 48.50169397 55.88281884 50.87162281 58.22265625 53.25390625 C60.06593574 55.06477643 61.97822799 56.75321354 63.9375 58.4375 C66.74576347 60.85617779 69.39970593 63.35899683 72 66 C74.58009215 68.62040609 77.21103607 71.10323412 80 73.5 C83.51141648 76.51762353 86.75307402 79.73359081 90 83.03125 C91.93891002 84.93986455 93.93699551 86.72710552 96 88.5 C99.51141648 91.51762353 102.75307402 94.73359081 106 98.03125 C108.56046264 100.55170541 111.26765543 102.87104525 113.9921875 105.2109375 C116.77122115 107.68719705 119.35891612 110.33261282 121.9453125 113.0078125 C124.00057143 115.17787175 124.00057143 115.17787175 127.07493591 116.67900085 C129.48219098 118.70617762 129.9711035 119.85037847 130.57682991 122.98673439 C130.82095648 127.04393697 130.86930644 131.06534153 130.85571289 135.12817383 C130.87203499 136.69229284 130.89083048 138.25638771 130.91191101 139.82044983 C130.96060878 144.06452459 130.97059052 148.30784803 130.97061086 152.55217195 C130.97334292 156.09830628 130.99294868 159.64427412 131.01190466 163.19035262 C131.05555952 171.5593743 131.06577703 179.92800261 131.05688477 188.29711914 C131.0484451 196.92238255 131.10293576 205.54567275 131.18742949 214.17048246 C131.25742303 221.58221617 131.28480266 228.99331063 131.27899545 236.40537089 C131.2761662 240.82945096 131.29009169 245.25188137 131.3464222 249.6756382 C131.39785686 253.83896458 131.39601981 257.99897586 131.35394478 262.1623745 C131.34741278 263.68614901 131.35949821 265.21013991 131.39200974 266.73358154 C131.62074162 278.22128289 131.62074162 278.22128289 127.62170219 282.61011314 C124.83291651 284.6544356 122.02473457 286.33230449 119 288 C117.46311492 289.14543852 115.93895244 290.30849436 114.4375 291.5 C109.56164319 294.68440914 105.65512184 294.56551218 100 294 C98.83726562 293.91878906 97.67453125 293.83757812 96.4765625 293.75390625 C93.31454378 293.53098736 90.15765148 293.27716063 87 293 C87 292.67 87 292.34 87 292 C88.65 292 90.3 292 92 292 C92.14992872 268.73811033 92.23093027 245.47688102 92.23059464 222.21448898 C92.23203378 211.41245946 92.25575513 200.61134886 92.33251953 189.80957031 C92.39939593 180.39112077 92.42386632 170.97366212 92.39809489 161.55499387 C92.38591947 156.57055765 92.39451568 151.58816615 92.4539566 146.60402679 C92.50932832 141.90478119 92.5076568 137.20888511 92.46369362 132.509552 C92.45741584 130.79232971 92.47134056 129.07488566 92.50784111 127.35803986 C92.67058953 119.19100713 92.61012088 112.88654771 86.81314635 106.68331456 C84.31525529 104.29459057 81.71307556 102.14439158 79 100 C77.57831598 98.75570945 76.16022136 97.50726695 74.75 96.25 C74.12609375 95.71890625 73.5021875 95.1878125 72.859375 94.640625 C70.10779595 92.21276113 67.57353926 89.58250081 65 86.96875 C63.06108998 85.06013545 61.06300449 83.27289448 59 81.5 C55.48998489 78.48358077 52.24948724 75.26904868 49.00390625 71.97265625 C46.41753849 69.42662171 43.6846472 67.07978443 40.93359375 64.71484375 C38.43430862 62.49830603 36.11718116 60.12837719 33.77734375 57.74609375 C31.93406426 55.93522357 30.02177201 54.24678646 28.0625 52.5625 C25.25423653 50.14382221 22.60029407 47.64100317 20 45 C17.41990785 42.37959391 14.78896393 39.89676588 12 37.5 C8.49199224 34.48530583 5.25222113 31.27436256 2.01171875 27.9765625 C0.01382392 26.01358234 -2.05574268 24.19079329 -4.1875 22.375 C-7.5405052 19.49816122 -10.28382588 16.48009809 -13 13 C-11.21427748 11.16052663 -9.42197551 9.32842259 -7.625 7.5 C-7.11710938 6.97535156 -6.60921875 6.45070313 -6.0859375 5.91015625 C-4.76167396 4.56846819 -3.38394135 3.28004185 -2 2 C-1.34 2 -0.68 2 0 2 C0 1.34 0 0.68 0 0 Z " fill="#CADDEB" transform="translate(253,83)"/>
<path d="M0 0 C1.07454941 -0.01354271 1.07454941 -0.01354271 2.17080688 -0.02735901 C3.68544338 -0.04185486 5.2001424 -0.05074661 6.71484375 -0.05444336 C9.02451933 -0.0663314 11.33151402 -0.1155069 13.640625 -0.16601562 C15.11457033 -0.17548159 16.58853203 -0.1827158 18.0625 -0.1875 C18.74911713 -0.20703232 19.43573425 -0.22656464 20.14315796 -0.24668884 C23.92091419 -0.21139938 25.53400593 0.26682791 28.51416016 2.65600586 C32.31696995 7.45853229 32.91444753 10.38849952 32.91802979 16.57603455 C32.92114977 17.30279674 32.92426975 18.02955893 32.92748427 18.77834421 C32.93546312 21.2142097 32.9291411 23.649826 32.92285156 26.08569336 C32.9255615 27.83184454 32.92912245 29.57799459 32.93347168 31.32414246 C32.94259829 36.06792012 32.93905011 40.81161091 32.93271351 45.55539012 C32.92765414 50.51785058 32.93234486 55.48030354 32.93548584 60.44276428 C32.939126 68.7778558 32.93432541 77.1129119 32.92480469 85.44799805 C32.91392361 95.0853306 32.917443 104.7225785 32.9284575 114.359909 C32.93753319 122.6317689 32.93881416 130.90360332 32.93358016 139.1754666 C32.93046156 144.11693526 32.93004806 149.05836414 32.93665314 153.99983025 C32.94242992 158.6463511 32.93842356 163.29276286 32.92686462 167.93927193 C32.92421967 169.64487146 32.92498032 171.35048017 32.92938995 173.05607605 C32.93485344 175.38389785 32.9280016 177.71136981 32.91802979 180.03916931 C32.91727573 181.34199828 32.91652168 182.64482725 32.91574478 183.98713589 C32.55936679 188.7787649 31.74997082 191.39377626 28.1640625 194.62109375 C22.5346113 198.56170959 16.67564988 197.59425715 9.9765625 197.62109375 C8.07487305 197.65203125 8.07487305 197.65203125 6.13476562 197.68359375 C-5.92035002 197.73405996 -5.92035002 197.73405996 -11.3359375 194.37109375 C-13.9606198 191.47944199 -14.7034727 189.63045254 -14.70703125 185.74609375 C-14.73313477 184.43898438 -14.73313477 184.43898438 -14.75976562 183.10546875 C-14.76888013 181.28256743 -14.77408854 179.45964239 -14.77539062 177.63671875 C-14.81426535 172.37207928 -14.81426535 172.37207928 -17.18359375 167.80859375 C-19.36498482 166.21478632 -19.36498482 166.21478632 -22.3359375 165.37109375 C-22.3359375 154.81109375 -22.3359375 144.25109375 -22.3359375 133.37109375 C-19.8609375 132.38109375 -19.8609375 132.38109375 -17.3359375 131.37109375 C-15.23849903 128.43982103 -15.08573981 125.91075718 -15.0843811 122.36805725 C-15.07899826 121.36008591 -15.07361542 120.35211456 -15.06806946 119.31359863 C-15.07219345 118.21374634 -15.07631744 117.11389404 -15.08056641 115.98071289 C-15.07513573 114.23624123 -15.07513573 114.23624123 -15.06959534 112.45652771 C-15.06269948 109.93018949 -15.06019625 107.40383636 -15.06154251 104.87748909 C-15.0625061 100.88093257 -15.05001244 96.88455253 -15.03256226 92.88804626 C-14.98556397 81.52475626 -14.96159376 70.1614786 -14.95507812 58.7980957 C-14.95132616 52.51957178 -14.93328733 46.24124775 -14.89998376 39.9628095 C-14.88308929 36.64207154 -14.87629192 33.32177942 -14.88292313 30.00099373 C-14.88997252 26.29731102 -14.87275392 22.59447207 -14.85009766 18.89086914 C-14.85827011 17.79304108 -14.86644257 16.69521301 -14.87486267 15.56411743 C-14.79389831 8.13947463 -14.79389831 8.13947463 -12.49130249 4.27610779 C-8.29496138 0.56718204 -5.40010094 0.04192931 0 0 Z " fill="#2C5770" transform="translate(29.3359375,263.62890625)"/>
<path d="M0 0 C22.11 0 44.22 0 67 0 C67 30.36 67 60.72 67 92 C49.78629549 90.8524197 49.78629549 90.8524197 41.953125 89.84375 C41.09039978 89.7365564 40.22767456 89.62936279 39.33880615 89.5189209 C36.64201818 89.18328098 33.94598225 88.84204575 31.25 88.5 C28.53963583 88.15883867 25.82912166 87.81896496 23.11834717 87.4810791 C21.44950584 87.27280169 19.78090209 87.06260647 18.11260986 86.84997559 C12.07628161 86.09269679 6.06941167 85.5517647 0 85 C0 56.95 0 28.9 0 0 Z " fill="#1C4757" transform="translate(221,235)"/>
<path d="M0 0 C3.89824442 1.6111509 6.67095632 4.26518412 9.6875 7.125 C10.24783936 7.64924561 10.80817871 8.17349121 11.38549805 8.71362305 C13.26141951 10.47110288 15.13080048 12.23537437 17 14 C18.3564853 15.27504342 19.71326339 16.54977542 21.0703125 17.82421875 C23.93989426 20.52090604 26.80680942 23.22039026 29.671875 25.921875 C33.79544678 29.80918126 37.92727231 33.68759895 42.0625 37.5625 C42.71839111 38.17714111 43.37428223 38.79178223 44.05004883 39.42504883 C45.37202685 40.66378337 46.69404824 41.90247162 48.01611328 43.14111328 C52.012426 46.88562781 56.00729269 50.63168506 60.00244141 54.37744141 C63.32277591 57.49040689 66.64343792 60.60302133 69.96484375 63.71484375 C76.83864102 70.15569918 83.70565189 76.60360091 90.5625 83.0625 C96.4968199 88.65178563 102.44598829 94.22470477 108.40869141 99.78369141 C114.94598038 105.87906172 121.46513028 111.99370988 127.98388672 118.10888672 C131.98532289 121.86223191 135.98796685 125.61428947 139.9909668 129.3659668 C144.065196 133.18471464 148.13621293 137.00685213 152.20532227 140.83105469 C154.21090191 142.71330615 156.2202862 144.59141646 158.23046875 146.46875 C160.6445518 148.72377746 163.04204235 150.99419616 165.42578125 153.28125 C166.47119098 154.27100573 167.51675403 155.26059955 168.5625 156.25 C169.45066406 157.10078125 170.33882813 157.9515625 171.25390625 158.828125 C176.46689839 162.95106047 181.28069228 164.4977265 188 164 C190.77747682 163.71360214 190.77747682 163.71360214 193 163 C193.33 162.34 193.66 161.68 194 161 C196.33991708 164.65612044 196.37437949 167.73207376 196 172 C194.34860695 175.5386994 193.28394771 176.81070153 190 179 C185.32768092 180.14192873 181.48587562 179.88156177 177.3203125 177.41015625 C171.03241018 172.37072149 165.42448362 166.54089541 159.7890625 160.79296875 C156.9005246 157.90038528 153.90278263 155.22236954 150.79296875 152.57421875 C148.33279825 150.41419977 146.07035076 148.08069726 143.77734375 145.74609375 C141.93406426 143.93522357 140.02177201 142.24678646 138.0625 140.5625 C135.25423653 138.14382221 132.60029407 135.64100317 130 133 C127.41990785 130.37959391 124.78896393 127.89676588 122 125.5 C118.48858352 122.48237647 115.24692598 119.26640919 112 115.96875 C110.06108998 114.06013545 108.06300449 112.27289448 106 110.5 C102.48858352 107.48237647 99.24692598 104.26640919 96 100.96875 C94.06108998 99.06013545 92.06300449 97.27289448 90 95.5 C86.48858352 92.48237647 83.24692598 89.26640919 80 85.96875 C78.06108998 84.06013545 76.06300449 82.27289448 74 80.5 C70.48998489 77.48358077 67.24948724 74.26904868 64.00390625 70.97265625 C61.41753849 68.42662171 58.6846472 66.07978443 55.93359375 63.71484375 C53.43430862 61.49830603 51.11718116 59.12837719 48.77734375 56.74609375 C46.93406426 54.93522357 45.02177201 53.24678646 43.0625 51.5625 C40.25423653 49.14382221 37.60029407 46.64100317 35 44 C32.41990785 41.37959391 29.78896393 38.89676588 27 36.5 C24.21103607 34.10323412 21.58009215 31.62040609 19 29 C11.20950023 20.49630948 11.20950023 20.49630948 1.3125 15.4375 C-2.30280423 16.05141959 -3.08658216 16.67997611 -5.7109375 19.0703125 C-6.41468506 19.70735107 -7.11843262 20.34438965 -7.84350586 21.00073242 C-8.55514893 21.66049072 -9.26679199 22.32024902 -10 23 C-10.64912354 23.59981689 -11.29824707 24.19963379 -11.96704102 24.81762695 C-13.96670537 26.68107095 -15.95358282 28.55730473 -17.9375 30.4375 C-19.43616181 31.85290282 -20.93486077 33.26826629 -22.43359375 34.68359375 C-23.57030518 35.75843018 -23.57030518 35.75843018 -24.72998047 36.85498047 C-28.31468464 40.24229074 -31.90766134 43.62079092 -35.5 47 C-36.90365482 48.32160504 -38.30730061 49.64321966 -39.7109375 50.96484375 C-42.67167341 53.7516995 -45.63567863 56.53503013 -48.6015625 59.31640625 C-49.35888672 60.02732422 -50.11621094 60.73824219 -50.89648438 61.47070312 C-52.3318176 62.81797909 -53.76795331 64.16440089 -55.20507812 65.50976562 C-58.43655919 68.54463057 -61.62634961 71.60787896 -64.75 74.75390625 C-67.04781309 77.06763577 -69.37640788 79.27618262 -71.875 81.375 C-74.8846753 83.96634205 -77.71088616 86.67254783 -80.5 89.5 C-83.86114482 92.9071879 -87.33701203 96.07458174 -90.96875 99.1875 C-93.23638572 101.2109288 -95.3657695 103.33653347 -97.5 105.5 C-100.22829407 108.26560408 -102.98516834 110.91287031 -105.9375 113.4375 C-109.1103592 116.15619248 -112.06338382 119.02751675 -115 122 C-118.54232199 125.58558699 -122.17555661 128.94891662 -126.00390625 132.22265625 C-129.06666727 134.94977223 -131.90223493 137.89404637 -134.78125 140.8125 C-137.40771122 143.40196881 -140.16976458 145.78836964 -142.96875 148.1875 C-145.23638572 150.2109288 -147.3657695 152.33653347 -149.5 154.5 C-152.85935939 157.90537801 -156.33084183 161.07308546 -159.96484375 164.1796875 C-162.26603192 166.23794794 -164.40709206 168.41488627 -166.5625 170.625 C-175.57164884 179.66505501 -175.57164884 179.66505501 -181.625 180.5 C-186.09867944 179.83723267 -188.49457638 178.34969014 -191.8125 175.375 C-193.65166953 171.69666095 -193.23294152 168.03765305 -193 164 C-190 163 -190 163 -187 164 C-185.40006557 164.14319551 -183.79355688 164.22039526 -182.1875 164.25 C-181.35605469 164.27578125 -180.52460938 164.3015625 -179.66796875 164.328125 C-173.24021952 163.53759654 -169.0401694 159.54140473 -164.5625 155.25 C-163.70555542 154.44429565 -163.70555542 154.44429565 -162.83129883 153.62231445 C-159.35160847 150.33690392 -155.94851883 146.98313345 -152.59765625 143.56640625 C-150.83533729 141.83855808 -148.99696908 140.23320827 -147.125 138.625 C-144.1153247 136.03365795 -141.28911384 133.32745217 -138.5 130.5 C-135.13885518 127.0928121 -131.66298797 123.92541826 -128.03125 120.8125 C-125.76361428 118.7890712 -123.6342305 116.66346653 -121.5 114.5 C-118.77170593 111.73439592 -116.01483166 109.08712969 -113.0625 106.5625 C-109.8896408 103.84380752 -106.93661618 100.97248325 -104 98 C-100.45767801 94.41441301 -96.82444339 91.05108338 -92.99609375 87.77734375 C-90.73867374 85.76731223 -88.62264287 83.65167047 -86.5 81.5 C-83.77170593 78.73439592 -81.01483166 76.08712969 -78.0625 73.5625 C-74.8896408 70.84380752 -71.93661618 67.97248325 -69 65 C-65.45767801 61.41441301 -61.82444339 58.05108338 -57.99609375 54.77734375 C-55.73867374 52.76731223 -53.62264287 50.65167047 -51.5 48.5 C-48.77170593 45.73439592 -46.01483166 43.08712969 -43.0625 40.5625 C-39.8896408 37.84380752 -36.93661618 34.97248325 -34 32 C-30.45767801 28.41441301 -26.82444339 25.05108338 -22.99609375 21.77734375 C-19.94018722 19.05633108 -17.11068061 16.11911834 -14.23828125 13.20703125 C-11.50551223 10.51241608 -8.64160914 8.00639607 -5.73046875 5.5078125 C-3.72531622 3.76065928 -1.84156687 1.91829882 0 0 Z " fill="#EF3838" transform="translate(253,51)"/>
<path d="M0 0 C3.22868746 -0.14584064 6.45652365 -0.23424106 9.6875 -0.3125 C10.59951172 -0.35439453 11.51152344 -0.39628906 12.45117188 -0.43945312 C17.04224477 -0.52292718 19.25487997 -0.56004494 23.01953125 2.26953125 C26.56496258 7.15761113 27.25041889 10.07589982 27.25396729 16.2049408 C27.25708727 16.93170299 27.26020725 17.65846518 27.26342177 18.40725046 C27.27140062 20.84311595 27.2650786 23.27873225 27.25878906 25.71459961 C27.261499 27.46075079 27.26505995 29.20690084 27.26940918 30.95304871 C27.27853579 35.69682637 27.27498761 40.44051716 27.26865101 45.18429637 C27.26359164 50.14675683 27.26828236 55.10920979 27.27142334 60.07167053 C27.2750635 68.40676205 27.27026291 76.74181815 27.26074219 85.0769043 C27.24986111 94.71423685 27.2533805 104.35148475 27.264395 113.98881525 C27.27347069 122.26067515 27.27475166 130.53250957 27.26951766 138.80437285 C27.26639906 143.74584151 27.26598556 148.68727039 27.27259064 153.6287365 C27.27836742 158.27525735 27.27436106 162.92166911 27.26280212 167.56817818 C27.26015717 169.27377771 27.26091782 170.97938642 27.26532745 172.6849823 C27.27079094 175.0128041 27.2639391 177.34027606 27.25396729 179.66807556 C27.25321323 180.97090453 27.25245918 182.2737335 27.25168228 183.61604214 C26.89530429 188.40767115 26.08590832 191.02268251 22.5 194.25 C18.56398718 197.00520897 16.48380171 197.1192964 11.6796875 197.09765625 C10.42285156 197.09443359 9.16601562 197.09121094 7.87109375 197.08789062 C6.55238281 197.07951172 5.23367187 197.07113281 3.875 197.0625 C2.53515789 197.05748489 1.195314 197.05292201 -0.14453125 197.04882812 C-3.42973206 197.03701086 -6.71484397 197.02053617 -10 197 C-10 196.67 -10 196.34 -10 196 C-6.7 195.67 -3.4 195.34 0 195 C2.02917987 190.81194903 2.28339669 187.06778994 2.25396729 182.4984436 C2.25708727 181.75182036 2.26020725 181.00519711 2.26342177 180.23594892 C2.2713872 177.7387615 2.2650838 175.24181806 2.25878906 172.74462891 C2.26149962 170.95231484 2.26506091 169.16000188 2.26940918 167.36769104 C2.27852908 162.50194205 2.2749902 157.63627784 2.26865101 152.77052736 C2.26358741 147.67688042 2.26828361 142.58324073 2.27142334 137.48959351 C2.27506259 128.93347877 2.27026564 120.37739856 2.26074219 111.82128906 C2.24986468 101.93460782 2.25337828 92.0480091 2.264395 82.16132987 C2.27347733 73.67031226 2.27474831 65.17931948 2.26951766 56.68829858 C2.26640228 51.61823129 2.26597664 46.54820276 2.27259064 41.47813797 C2.27837696 36.70930313 2.27434361 31.94057442 2.26280212 27.17175102 C2.26016213 25.42345162 2.26090934 23.67514327 2.26532745 21.92684746 C2.27081063 19.53628645 2.26391528 17.1460633 2.25396729 14.75552368 C2.25842873 14.06728063 2.26289017 13.37903758 2.26748681 12.66993868 C2.23047102 8.06866801 1.41344976 4.33068727 0 0 Z " fill="#1D4859" transform="translate(35,264)"/>
<path d="M0 0 C10.89 0 21.78 0 33 0 C33 28.71 33 57.42 33 87 C21.98717325 86.15285948 10.99054499 85.0990545 0 84 C0 56.28 0 28.56 0 0 Z " fill="#2C5770" transform="translate(221,236)"/>
<path d="M0 0 C11.88 0 23.76 0 36 0 C37.07711096 19.02896022 37.07711096 19.02896022 34.27734375 24.15234375 C31.97905038 26.39544654 29.65567154 28.19912274 27 30 C25.65159243 31.149211 24.31741568 32.31538832 23 33.5 C22.3503125 34.056875 21.700625 34.61375 21.03125 35.1875 C18.76361428 37.2109288 16.6342305 39.33653347 14.5 41.5 C4.24873096 51.87563452 4.24873096 51.87563452 0 54 C0 36.18 0 18.36 0 0 Z " fill="#FCAF24" transform="translate(127,77)"/>
<path d="M0 0 C5.94 0 11.88 0 18 0 C19.36821629 18.49625726 19.36821629 18.49625726 16.27734375 24.15234375 C13.97879779 26.39569307 11.64907022 28.1889844 9 30 C7.48669166 31.33927788 5.98563737 32.69259162 4.5 34.0625 C1.14285714 37 1.14285714 37 0 37 C0 24.79 0 12.58 0 0 Z " fill="#FD8F1C" transform="translate(145,77)"/>
</svg>
